<svg xmlns="http://www.w3.org/2000/svg" width="720" height="440" font-family="Helvetica,Arial,sans-serif" font-size="13">
<rect width="720" height="440" fill="white"/>
<text x="360.0" y="26" font-size="17" text-anchor="middle" font-weight="bold">Step C: 计分校准 — "真实近似档" vs "假设档" (同策略, T=500)</text>
<text x="360.0" y="44" font-size="12" text-anchor="middle" fill="#666">real/assumed(同uniform发牌)=0.71× ⇒ 同量级, 计分公式不是"分低"真凶</text>
<line x1="70" y1="362" x2="700" y2="362" stroke="#333"/>
<line x1="70" y1="60" x2="70" y2="362" stroke="#333"/>
<text x="20" y="211.0" text-anchor="middle" transform="rotate(-90 20 211.0)">总分 total</text>
<rect x="122.5" y="219.60082659150967" width="105.0" height="142.39917340849033" fill="#789"/>
<line x1="175.0" y1="228.6436762472318" x2="175.0" y2="210.55797693578754" stroke="#222"/>
<text x="175.0" y="211.60082659150967" text-anchor="middle" font-size="12" font-weight="bold">5814</text>
<text x="175.0" y="380" text-anchor="middle" font-size="12" font-weight="bold">assumed</text>
<text x="175.0" y="396" text-anchor="middle" font-size="11" fill="#555">发牌=uniform</text>
<text x="175.0" y="412" text-anchor="middle" font-size="11" fill="#36c">surv=83</text>
<rect x="332.5" y="261.5642365687328" width="105.0" height="100.43576343126722" fill="#5a8"/>
<line x1="385.0" y1="271.2360508592684" x2="385.0" y2="251.89242227819722" stroke="#222"/>
<text x="385.0" y="253.56423656873278" text-anchor="middle" font-size="12" font-weight="bold">4100</text>
<text x="385.0" y="380" text-anchor="middle" font-size="12" font-weight="bold">real_approx</text>
<text x="385.0" y="396" text-anchor="middle" font-size="11" fill="#555">发牌=uniform</text>
<text x="385.0" y="412" text-anchor="middle" font-size="11" fill="#36c">surv=140</text>
<text x="385.0" y="428" text-anchor="middle" font-size="10" fill="#c33">✂2/100封顶(下界)</text>
<rect x="542.5" y="110.33333333333331" width="105.0" height="251.66666666666669" fill="#3a6"/>
<line x1="595.0" y1="120.1891954893845" x2="595.0" y2="100.47747117728214" stroke="#222"/>
<text x="595.0" y="102.33333333333331" text-anchor="middle" font-size="12" font-weight="bold">10275</text>
<text x="595.0" y="380" text-anchor="middle" font-size="12" font-weight="bold">real_approx</text>
<text x="595.0" y="396" text-anchor="middle" font-size="11" fill="#555">发牌=no_hard</text>
<text x="595.0" y="412" text-anchor="middle" font-size="11" fill="#36c">surv=381</text>
<text x="595.0" y="428" text-anchor="middle" font-size="10" fill="#c33">✂56/100封顶(下界)</text>
</svg>