<svg xmlns="http://www.w3.org/2000/svg" width="860" height="460" font-family="Helvetica,Arial,sans-serif" font-size="13">
<rect width="860" height="460" fill="white"/>
<text x="430.0" y="26" font-size="17" text-anchor="middle" font-weight="bold">Step A: 无限局(T=500) 生存回合分布 — 最强策略 D2 S30 base=heur (M=200)</text>
<rect x="210.0" y="70" width="630.0" height="330" fill="#ffecec"/>
<line x1="210.0" y1="70" x2="210.0" y2="400" stroke="#d33" stroke-width="2" stroke-dasharray="5,4"/>
<text x="216.0" y="86" fill="#d33" font-weight="bold">旧 T=50 封顶</text>
<text x="216.0" y="104" fill="#d33" font-size="12">红区=125/200=62% 被截断</text>
<line x1="314.921875" y1="70" x2="314.921875" y2="400" stroke="#2a7" stroke-width="2"/>
<text x="319.921875" y="392" fill="#197" font-weight="bold">自然 surv 均值=85</text>
<line x1="186.9" y1="70" x2="186.9" y2="400" stroke="#999" stroke-width="1.5" stroke-dasharray="3,3"/>
<text x="182.9" y="374" fill="#777" font-size="11" text-anchor="end">旧"surv≈42"=截断均值</text>
<rect x="60.0" y="385.6521739130435" width="29.0" height="14.347826086956502" fill="#69c"/>
<rect x="90.0" y="141.7391304347826" width="29.0" height="258.2608695652174" fill="#69c"/>
<rect x="120.0" y="70.0" width="29.0" height="330.0" fill="#69c"/>
<rect x="150.0" y="213.47826086956522" width="29.0" height="186.52173913043478" fill="#69c"/>
<rect x="180.0" y="113.04347826086956" width="29.0" height="286.95652173913044" fill="#69c"/>
<rect x="210.0" y="170.43478260869566" width="29.0" height="229.56521739130434" fill="#d88"/>
<rect x="240.0" y="141.7391304347826" width="29.0" height="258.2608695652174" fill="#d88"/>
<rect x="270.0" y="170.43478260869566" width="29.0" height="229.56521739130434" fill="#d88"/>
<rect x="300.0" y="328.2608695652174" width="29.0" height="71.73913043478262" fill="#d88"/>
<rect x="330.0" y="285.21739130434787" width="29.0" height="114.78260869565213" fill="#d88"/>
<rect x="360.0" y="227.82608695652175" width="29.0" height="172.17391304347825" fill="#d88"/>
<rect x="390.0" y="299.5652173913044" width="29.0" height="100.43478260869563" fill="#d88"/>
<rect x="420.0" y="342.60869565217394" width="29.0" height="57.391304347826065" fill="#d88"/>
<rect x="450.0" y="313.9130434782609" width="29.0" height="86.08695652173913" fill="#d88"/>
<rect x="480.0" y="328.2608695652174" width="29.0" height="71.73913043478262" fill="#d88"/>
<rect x="510.0" y="356.95652173913044" width="29.0" height="43.04347826086956" fill="#d88"/>
<rect x="540.0" y="385.6521739130435" width="29.0" height="14.347826086956502" fill="#d88"/>
<rect x="600.0" y="328.2608695652174" width="29.0" height="71.73913043478262" fill="#d88"/>
<rect x="630.0" y="356.95652173913044" width="29.0" height="43.04347826086956" fill="#d88"/>
<rect x="660.0" y="371.304347826087" width="29.0" height="28.695652173913004" fill="#d88"/>
<rect x="690.0" y="371.304347826087" width="29.0" height="28.695652173913004" fill="#d88"/>
<rect x="720.0" y="328.2608695652174" width="29.0" height="71.73913043478262" fill="#d88"/>
<rect x="810.0" y="385.6521739130435" width="29.0" height="14.347826086956502" fill="#d88"/>
<line x1="60" y1="400" x2="840" y2="400" stroke="#333"/>
<line x1="60" y1="70" x2="60" y2="400" stroke="#333"/>
<text x="60.0" y="418" text-anchor="middle" font-size="11">0</text>
<text x="120.0" y="418" text-anchor="middle" font-size="11">20</text>
<text x="180.0" y="418" text-anchor="middle" font-size="11">40</text>
<text x="240.0" y="418" text-anchor="middle" font-size="11">60</text>
<text x="300.0" y="418" text-anchor="middle" font-size="11">80</text>
<text x="360.0" y="418" text-anchor="middle" font-size="11">100</text>
<text x="420.0" y="418" text-anchor="middle" font-size="11">120</text>
<text x="480.0" y="418" text-anchor="middle" font-size="11">140</text>
<text x="540.0" y="418" text-anchor="middle" font-size="11">160</text>
<text x="600.0" y="418" text-anchor="middle" font-size="11">180</text>
<text x="660.0" y="418" text-anchor="middle" font-size="11">200</text>
<text x="720.0" y="418" text-anchor="middle" font-size="11">220</text>
<text x="780.0" y="418" text-anchor="middle" font-size="11">240</text>
<text x="840.0" y="418" text-anchor="middle" font-size="11">260</text>
<text x="840.0" y="436" text-anchor="end" font-size="11" fill="#555">(另有 6 局 surv&gt;260, 最高 500)</text>
<text x="450.0" y="452" text-anchor="middle">生存回合 surv (自然死)</text>
<text x="16" y="235.0" text-anchor="middle" transform="rotate(-90 16 235.0)">局数</text>
<text x="54" y="404.0" text-anchor="end" font-size="11">0</text>
<text x="54" y="332.2608695652174" text-anchor="end" font-size="11">5</text>
<text x="54" y="260.5217391304348" text-anchor="end" font-size="11">10</text>
<text x="54" y="188.7826086956522" text-anchor="end" font-size="11">15</text>
<text x="54" y="117.04347826086956" text-anchor="end" font-size="11">20</text>
<text x="60" y="56" font-size="12" fill="#333">总分 5954±343 (旧 T=50≈2950) · 撞 T=500 封顶 1/200 ⇒ T=500 基本非 binding</text>
</svg>