<svg xmlns="http://www.w3.org/2000/svg" width="760" height="380" font-family="Helvetica,Arial,sans-serif" font-size="13">
<rect width="760" height="380" fill="white"/>
<text x="380.0" y="28" font-size="16" text-anchor="middle" fill="#111" font-weight="bold">玩家均分（对数轴）：技能地板 vs 运气缺口</text>
<line x1="150.0" y1="60" x2="150.0" y2="320" stroke="#eee"/>
<text x="150.0" y="338" font-size="11" text-anchor="middle" fill="#999" font-weight="normal">1</text>
<line x1="291.1390357597958" y1="60" x2="291.1390357597958" y2="320" stroke="#eee"/>
<text x="291.1390357597958" y="338" font-size="11" text-anchor="middle" fill="#999" font-weight="normal">10</text>
<line x1="432.2780715195916" y1="60" x2="432.2780715195916" y2="320" stroke="#eee"/>
<text x="432.2780715195916" y="338" font-size="11" text-anchor="middle" fill="#999" font-weight="normal">100</text>
<line x1="573.4171072793874" y1="60" x2="573.4171072793874" y2="320" stroke="#eee"/>
<text x="573.4171072793874" y="338" font-size="11" text-anchor="middle" fill="#999" font-weight="normal">1000</text>
<line x1="714.5561430391832" y1="60" x2="714.5561430391832" y2="320" stroke="#eee"/>
<text x="714.5561430391832" y="338" font-size="11" text-anchor="middle" fill="#999" font-weight="normal">10000</text>
<rect x="150" y="75" width="248.1" height="30" fill="#bbb" rx="3"/>
<text x="142" y="94.0" font-size="13" text-anchor="end" fill="#333" font-weight="normal">random (乱放)</text>
<text x="404.10144365684414" y="94.0" font-size="12" text-anchor="start" fill="#333" font-weight="bold">57</text>
<rect x="150" y="117" width="397.6" height="30" fill="#7aa7d8" rx="3"/>
<text x="142" y="136.0" font-size="13" text-anchor="end" fill="#333" font-weight="normal">greedy (贪心)</text>
<text x="553.6353301849585" y="136.0" font-size="12" text-anchor="start" fill="#333" font-weight="bold">657</text>
<rect x="150" y="159" width="533.9" height="30" fill="#2f6db5" rx="3"/>
<text x="142" y="178.0" font-size="13" text-anchor="end" fill="#333" font-weight="normal">strong (在线最强)</text>
<text x="689.9181451241743" y="178.0" font-size="12" text-anchor="start" fill="#333" font-weight="bold">6066</text>
<text x="150" y="305" font-size="12" text-anchor="start" fill="#2f6db5" font-weight="bold">技能地板：乱放→会玩 ≈ 106×</text>
<text x="700" y="305" font-size="12" text-anchor="end" fill="#e07b39" font-weight="bold">运气(信息价值)见 fig3/fig4 两通道</text>
</svg>